<svg width="26" height="26" viewBox="0 0 26 26" fill="none" xmlns="http://www.w3.org/2000/svg">
<path fill-rule="evenodd" clip-rule="evenodd" d="M1.44444 0C1.82753 0 2.19493 0.152182 2.46582 0.423068C2.73671 0.693954 2.88889 1.06135 2.88889 1.44444V2.88889H5.77778V1.44444C5.77778 1.06135 5.92996 0.693954 6.20085 0.423068C6.47173 0.152182 6.83913 0 7.22222 0C7.60531 0 7.97271 0.152182 8.2436 0.423068C8.51448 0.693954 8.66667 1.06135 8.66667 1.44444V2.88889H11.5556V1.44444C11.5556 1.06135 11.7077 0.693954 11.9786 0.423068C12.2495 0.152182 12.6169 0 13 0C13.3831 0 13.7505 0.152182 14.0214 0.423068C14.2923 0.693954 14.4444 1.06135 14.4444 1.44444V2.88889H17.3333V1.44444C17.3333 1.06135 17.4855 0.693954 17.7564 0.423068C18.0273 0.152182 18.3947 0 18.7778 0C19.1609 0 19.5283 0.152182 19.7992 0.423068C20.07 0.693954 20.2222 1.06135 20.2222 1.44444V2.88889H23.1111V1.44444C23.1111 1.06135 23.2633 0.693954 23.5342 0.423068C23.8051 0.152182 24.1725 0 24.5556 0C24.9386 0 25.306 0.152182 25.5769 0.423068C25.8478 0.693954 26 1.06135 26 1.44444V21.6667C26 22.8159 25.5435 23.9181 24.7308 24.7308C23.9181 25.5435 22.8159 26 21.6667 26H4.33333C3.18406 26 2.08186 25.5435 1.2692 24.7308C0.456546 23.9181 0 22.8159 0 21.6667V1.44444C0 1.06135 0.152182 0.693954 0.423068 0.423068C0.693954 0.152182 1.06135 0 1.44444 0ZM23.1111 5.77778H2.88889V21.6667C2.88889 22.0498 3.04107 22.4172 3.31196 22.688C3.58284 22.9589 3.95024 23.1111 4.33333 23.1111H21.6667C22.0498 23.1111 22.4172 22.9589 22.688 22.688C22.9589 22.4172 23.1111 22.0498 23.1111 21.6667V5.77778ZM14.4444 10.1111C14.4444 10.4942 14.2923 10.8616 14.0214 11.1325C13.7505 11.4034 13.3831 11.5556 13 11.5556C12.6169 11.5556 12.2495 11.4034 11.9786 11.1325C11.7077 10.8616 11.5556 10.4942 11.5556 10.1111C11.5556 9.72802 11.7077 9.36062 11.9786 9.08974C12.2495 8.81885 12.6169 8.66667 13 8.66667C13.3831 8.66667 13.7505 8.81885 14.0214 9.08974C14.2923 9.36062 14.4444 9.72802 14.4444 10.1111ZM18.7778 11.5556C19.1609 11.5556 19.5283 11.4034 19.7992 11.1325C20.07 10.8616 20.2222 10.4942 20.2222 10.1111C20.2222 9.72802 20.07 9.36062 19.7992 9.08974C19.5283 8.81885 19.1609 8.66667 18.7778 8.66667C18.3947 8.66667 18.0273 8.81885 17.7564 9.08974C17.4855 9.36062 17.3333 9.72802 17.3333 10.1111C17.3333 10.4942 17.4855 10.8616 17.7564 11.1325C18.0273 11.4034 18.3947 11.5556 18.7778 11.5556ZM8.66667 14.4444C8.66667 14.8275 8.51448 15.1949 8.2436 15.4658C7.97271 15.7367 7.60531 15.8889 7.22222 15.8889C6.83913 15.8889 6.47173 15.7367 6.20085 15.4658C5.92996 15.1949 5.77778 14.8275 5.77778 14.4444C5.77778 14.0614 5.92996 13.694 6.20085 13.4231C6.47173 13.1522 6.83913 13 7.22222 13C7.60531 13 7.97271 13.1522 8.2436 13.4231C8.51448 13.694 8.66667 14.0614 8.66667 14.4444ZM13 15.8889C13.3831 15.8889 13.7505 15.7367 14.0214 15.4658C14.2923 15.1949 14.4444 14.8275 14.4444 14.4444C14.4444 14.0614 14.2923 13.694 14.0214 13.4231C13.7505 13.1522 13.3831 13 13 13C12.6169 13 12.2495 13.1522 11.9786 13.4231C11.7077 13.694 11.5556 14.0614 11.5556 14.4444C11.5556 14.8275 11.7077 15.1949 11.9786 15.4658C12.2495 15.7367 12.6169 15.8889 13 15.8889ZM20.2222 14.4444C20.2222 14.8275 20.07 15.1949 19.7992 15.4658C19.5283 15.7367 19.1609 15.8889 18.7778 15.8889C18.3947 15.8889 18.0273 15.7367 17.7564 15.4658C17.4855 15.1949 17.3333 14.8275 17.3333 14.4444C17.3333 14.0614 17.4855 13.694 17.7564 13.4231C18.0273 13.1522 18.3947 13 18.7778 13C19.1609 13 19.5283 13.1522 19.7992 13.4231C20.07 13.694 20.2222 14.0614 20.2222 14.4444ZM7.22222 20.2222C7.60531 20.2222 7.97271 20.07 8.2436 19.7992C8.51448 19.5283 8.66667 19.1609 8.66667 18.7778C8.66667 18.3947 8.51448 18.0273 8.2436 17.7564C7.97271 17.4855 7.60531 17.3333 7.22222 17.3333C6.83913 17.3333 6.47173 17.4855 6.20085 17.7564C5.92996 18.0273 5.77778 18.3947 5.77778 18.7778C5.77778 19.1609 5.92996 19.5283 6.20085 19.7992C6.47173 20.07 6.83913 20.2222 7.22222 20.2222ZM14.4444 18.7778C14.4444 19.1609 14.2923 19.5283 14.0214 19.7992C13.7505 20.07 13.3831 20.2222 13 20.2222C12.6169 20.2222 12.2495 20.07 11.9786 19.7992C11.7077 19.5283 11.5556 19.1609 11.5556 18.7778C11.5556 18.3947 11.7077 18.0273 11.9786 17.7564C12.2495 17.4855 12.6169 17.3333 13 17.3333C13.3831 17.3333 13.7505 17.4855 14.0214 17.7564C14.2923 18.0273 14.4444 18.3947 14.4444 18.7778ZM18.7778 20.2222C19.1609 20.2222 19.5283 20.07 19.7992 19.7992C20.07 19.5283 20.2222 19.1609 20.2222 18.7778C20.2222 18.3947 20.07 18.0273 19.7992 17.7564C19.5283 17.4855 19.1609 17.3333 18.7778 17.3333C18.3947 17.3333 18.0273 17.4855 17.7564 17.7564C17.4855 18.0273 17.3333 18.3947 17.3333 18.7778C17.3333 19.1609 17.4855 19.5283 17.7564 19.7992C18.0273 20.07 18.3947 20.2222 18.7778 20.2222Z" fill="#013B82"/>
</svg>
