<svg width="291" height="133" viewBox="0 0 291 133" fill="none" xmlns="http://www.w3.org/2000/svg">
<path fill-rule="evenodd" clip-rule="evenodd" d="M121.284 132.02H10.533C4.71526 132.02 0 127.305 0 121.487V10.533C0 4.71526 4.71526 0 10.533 0H121.28C127.098 0 131.813 4.71526 131.813 10.533V121.487C131.817 127.305 127.098 132.02 121.284 132.02Z" fill="#013B81"/>
<path fill-rule="evenodd" clip-rule="evenodd" d="M94.4246 70.6728V69.3738C93.747 66.6984 90.7627 67.6885 89.9165 68.3135C89.2178 68.8296 88.5367 69.1034 88.1856 69.1982C86.6197 69.9812 80.6545 69.293 79.1132 68.2362C78.1968 67.8816 77.7088 66.9617 77.7299 66.0103H97.8092V70.6728H94.4246Z" fill="white"/>
<path fill-rule="evenodd" clip-rule="evenodd" d="M70.6201 94.5405H69.307C66.607 93.8699 67.6042 90.9172 68.2361 90.0816C68.7558 89.3899 69.0331 88.7158 69.1314 88.3682C69.9214 86.8199 69.2262 80.9179 68.1589 79.3906C67.8008 78.4812 66.8704 78.0002 65.9083 78.0213V97.89H70.6201V94.5405Z" fill="white"/>
<path fill-rule="evenodd" clip-rule="evenodd" d="M90.0078 82.8771L89.0809 83.7934C86.6934 85.2119 85.289 82.4206 85.1346 81.3884C85.0082 80.5387 84.7238 79.8646 84.5412 79.5522C83.9935 77.902 79.2852 74.2154 77.442 73.8854C76.5396 73.4922 75.5355 73.8047 74.8719 74.4928C74.1767 75.1494 73.8643 76.143 74.261 77.0348C74.5946 78.8605 78.3197 83.5196 79.9874 84.0603C80.3034 84.2358 80.9846 84.5202 81.8448 84.6466C82.8875 84.7976 85.7068 86.1879 84.2744 88.5508L83.3475 89.4672L85.7419 91.8371L89.0739 88.5403L92.4058 85.2435L90.0078 82.8771Z" fill="white"/>
<path fill-rule="evenodd" clip-rule="evenodd" d="M65.9083 75.5496C71.1713 75.4794 75.4196 71.2382 75.4231 66.0138H72.839C72.8355 69.8267 69.7459 72.9234 65.9119 72.9936V75.5496H65.9083Z" fill="white"/>
<path fill-rule="evenodd" clip-rule="evenodd" d="M65.9083 69.8407C67.9869 69.7705 69.6511 68.0853 69.6546 66.0103H65.9083V69.8407Z" fill="white"/>
<path fill-rule="evenodd" clip-rule="evenodd" d="M67.7762 109.845C78.4531 109.252 88.1224 104.965 95.4709 98.2587C98.9398 102.346 102.177 106.292 105.649 110.379C107.085 112.433 109.462 112.169 110.874 110.888C112.169 109.49 112.433 107.138 110.358 105.716C106.225 102.279 102.237 99.0768 98.1077 95.6395C104.958 88.2524 109.255 78.548 109.631 67.864C114.978 68.324 120.069 68.8471 125.423 69.3071C127.905 69.753 129.398 67.9062 129.482 66.0103C119.732 66.0103 109.982 66.0103 100.228 66.0103C100.228 66.1191 100.232 66.2244 100.232 66.3333C100.232 85.0749 84.9239 100.309 65.9083 100.664C65.9083 110.298 65.9083 119.936 65.9083 129.57C67.8218 129.485 69.6897 128.007 69.2403 125.553C68.7733 120.23 68.2432 115.168 67.7762 109.845Z" fill="white"/>
<path fill-rule="evenodd" clip-rule="evenodd" d="M94.4246 61.3477V62.6467C93.747 65.3221 90.7627 64.332 89.9165 63.7071C89.2178 63.1944 88.5367 62.9171 88.1856 62.8223C86.6197 62.0393 80.6545 62.7275 79.1132 63.7843C78.1968 64.1389 77.7088 65.0588 77.7299 66.0103H97.8092V61.3477H94.4246Z" fill="white"/>
<path fill-rule="evenodd" clip-rule="evenodd" d="M70.6201 37.4798H69.307C66.607 38.1504 67.6042 41.1032 68.2361 41.9388C68.7558 42.6305 69.0331 43.3046 69.1314 43.6522C69.9214 45.204 69.2262 51.1025 68.1589 52.6298C67.8008 53.5391 66.8704 54.0201 65.9083 53.9991V34.1268H70.6201V37.4798Z" fill="white"/>
<path fill-rule="evenodd" clip-rule="evenodd" d="M90.0078 49.1434L89.0809 48.227C86.6934 46.8086 85.289 49.5998 85.1346 50.6321C85.0082 51.4852 84.7238 52.1558 84.5412 52.4683C83.9935 54.1185 79.2852 57.805 77.442 58.1351C76.5396 58.5283 75.5355 58.2158 74.8719 57.5312C74.1767 56.8746 73.8643 55.881 74.261 54.9857C74.5946 53.16 78.3197 48.5009 79.9874 47.9602C80.3034 47.7811 80.9846 47.5003 81.8448 47.3739C82.8875 47.2229 85.7068 45.8325 84.2744 43.4696L83.3475 42.5533L85.7419 40.1833L89.0739 43.4802L92.4058 46.777L90.0078 49.1434Z" fill="white"/>
<path fill-rule="evenodd" clip-rule="evenodd" d="M65.9083 56.4744C71.1713 56.5446 75.4196 60.7859 75.4231 66.0102H72.839C72.8355 62.1973 69.7459 59.1006 65.9119 59.0304V56.4744H65.9083Z" fill="white"/>
<path fill-rule="evenodd" clip-rule="evenodd" d="M65.9083 62.1797C67.9869 62.2499 69.6511 63.9352 69.6546 66.0102H65.9083V62.1797Z" fill="white"/>
<path fill-rule="evenodd" clip-rule="evenodd" d="M67.7762 22.1755C78.4531 22.7688 88.1224 27.0593 95.4709 33.7617C98.9398 29.6785 102.177 25.7286 105.649 21.6418C107.085 19.5879 109.462 19.8512 110.874 21.1327C112.169 22.5301 112.433 24.8824 110.358 26.3044C106.225 29.7417 102.237 32.9472 98.1077 36.3809C104.958 43.7681 109.255 53.4725 109.631 64.1564C114.978 63.6965 120.069 63.1733 125.423 62.7134C127.905 62.2675 129.398 64.1178 129.482 66.0102C119.732 66.0102 109.982 66.0102 100.228 66.0102C100.228 65.9014 100.232 65.796 100.232 65.6872C100.232 46.9455 84.9239 31.7148 65.9083 31.3602C65.9083 21.7261 65.9083 12.0884 65.9083 2.45422C67.8218 2.53849 69.6897 4.01662 69.2403 6.4708C68.7733 11.7935 68.2432 16.8528 67.7762 22.1755Z" fill="white"/>
<path fill-rule="evenodd" clip-rule="evenodd" d="M37.3921 70.6728V69.3738C38.0697 66.6984 41.054 67.6885 41.9002 68.3135C42.5989 68.8296 43.28 69.1034 43.6311 69.1982C45.197 69.9812 51.1622 69.293 52.7035 68.2362C53.6199 67.8816 54.1079 66.9617 54.0903 66.0103H34.0075V70.6728H37.3921Z" fill="white"/>
<path fill-rule="evenodd" clip-rule="evenodd" d="M61.1966 94.5405H62.5097C65.2132 93.8699 64.2125 90.9172 63.5806 90.0816C63.0609 89.3899 62.7836 88.7158 62.6853 88.3682C61.8953 86.8199 62.5905 80.9179 63.6578 79.3906C64.0159 78.4812 64.9463 78.0002 65.9084 78.0213V97.89H61.1966V94.5405Z" fill="white"/>
<path fill-rule="evenodd" clip-rule="evenodd" d="M65.9083 75.5496C60.6454 75.4794 56.3971 71.2382 56.3971 66.0138H58.9812C58.9847 69.8267 62.0743 72.9234 65.9083 72.9936V75.5496Z" fill="white"/>
<path fill-rule="evenodd" clip-rule="evenodd" d="M65.9084 69.8407C63.8298 69.7705 62.1656 68.0853 62.1621 66.0103H65.9084V69.8407Z" fill="white"/>
<path fill-rule="evenodd" clip-rule="evenodd" d="M64.0405 109.845C53.3636 109.252 43.6978 104.965 36.3458 98.2587C32.8769 102.346 29.6398 106.292 26.1674 110.379C24.7314 112.433 22.3545 112.169 20.9431 110.888C19.6475 109.49 19.3842 107.138 21.4592 105.716C25.5916 102.279 29.5801 99.0768 33.7126 95.6395C26.8661 88.2524 22.5652 78.548 22.1895 67.864C16.8422 68.324 11.7513 68.8471 6.39703 69.3071C3.91476 69.753 2.42259 67.9062 2.33833 66.0103C12.0884 66.0103 21.8384 66.0103 31.5919 66.0103C31.5919 66.1191 31.5884 66.2244 31.5884 66.3333C31.5884 85.0749 46.8963 100.309 65.9119 100.664C65.9119 110.298 65.9119 119.936 65.9119 129.57C63.9984 129.485 62.1305 128.007 62.5799 125.553C63.0434 120.23 63.5735 115.168 64.0405 109.845Z" fill="white"/>
<path fill-rule="evenodd" clip-rule="evenodd" d="M37.3921 61.3477V62.6467C38.0697 65.3221 41.054 64.332 41.9002 63.7071C42.5989 63.1944 43.28 62.9171 43.6311 62.8223C45.197 62.0393 51.1622 62.7275 52.7035 63.7843C53.6199 64.1389 54.1079 65.0588 54.0903 66.0103H34.0075V61.3477H37.3921Z" fill="white"/>
<path fill-rule="evenodd" clip-rule="evenodd" d="M61.1966 37.4798H62.5097C65.2132 38.1504 64.2125 41.1032 63.5806 41.9388C63.0609 42.6305 62.7836 43.3046 62.6853 43.6522C61.8953 45.204 62.5905 51.1025 63.6578 52.6298C64.0159 53.5391 64.9463 54.0201 65.9084 53.9991V34.1268H61.1966V37.4798Z" fill="white"/>
<path fill-rule="evenodd" clip-rule="evenodd" d="M41.8089 49.1434L42.7358 48.227C45.1233 46.8086 46.5277 49.5998 46.6822 50.6321C46.8085 51.4852 47.0929 52.1558 47.272 52.4683C47.8197 54.1185 52.528 57.805 54.3747 58.1351C55.2771 58.5283 56.2812 58.2158 56.9448 57.5312C57.64 56.8746 57.9524 55.881 57.5557 54.9857C57.2221 53.16 53.497 48.5009 51.8293 47.9602C51.5133 47.7811 50.8357 47.5003 49.9719 47.3739C48.9292 47.2229 46.1099 45.8325 47.5423 43.4696L48.4692 42.5533L46.0748 40.1833L42.7428 43.4802L39.4109 46.777L41.8089 49.1434Z" fill="white"/>
<path fill-rule="evenodd" clip-rule="evenodd" d="M65.9083 56.4744C60.6454 56.5446 56.3971 60.7859 56.3971 66.0102H58.9812C58.9847 62.1973 62.0743 59.1006 65.9083 59.0304V56.4744Z" fill="white"/>
<path fill-rule="evenodd" clip-rule="evenodd" d="M65.9084 62.1797C63.8298 62.2499 62.1656 63.9352 62.1621 66.0102H65.9084V62.1797Z" fill="white"/>
<path fill-rule="evenodd" clip-rule="evenodd" d="M64.0405 22.1755C53.3636 22.7688 43.6978 27.0593 36.3458 33.7617C32.8769 29.6785 29.6398 25.7286 26.1674 21.6418C24.7314 19.5879 22.3545 19.8512 20.9431 21.1327C19.6475 22.5301 19.3842 24.8824 21.4592 26.3044C25.5916 29.7417 29.5801 32.9472 33.7126 36.3809C26.8661 43.7681 22.5652 53.4725 22.1895 64.1564C16.8422 63.6965 11.7513 63.1733 6.39703 62.7134C3.91476 62.2675 2.42259 64.1178 2.33833 66.0102C12.0884 66.0102 21.8384 66.0102 31.5919 66.0102C31.5919 65.9014 31.5884 65.796 31.5884 65.6872C31.5884 46.9455 46.8963 31.7148 65.9119 31.3602C65.9119 21.7261 65.9119 12.0884 65.9119 2.45422C63.9984 2.53849 62.1305 4.01662 62.5799 6.4708C63.0434 11.7935 63.5735 16.8528 64.0405 22.1755Z" fill="white"/>
<path d="M30.8757 128.506C45.9034 128.506 58.0859 116.323 58.0859 101.296C58.0859 86.2679 45.9034 74.0854 30.8757 74.0854C15.8479 74.0854 3.66547 86.2679 3.66547 101.296C3.66547 116.323 15.8479 128.506 30.8757 128.506Z" fill="#013B81"/>
<path d="M30.8546 122.846C30.1594 122.804 29.4607 122.769 28.7585 122.713C27.7298 122.628 27.0662 121.979 26.9574 120.94C26.8486 119.907 26.7467 118.875 26.6555 117.843C26.5747 116.934 26.1253 116.291 25.2932 115.922C25.0018 115.792 24.7069 115.666 24.4084 115.561C23.6149 115.273 22.8741 115.361 22.207 115.908C21.4311 116.547 20.6552 117.186 19.8722 117.818C18.8505 118.647 18.0044 118.679 17.0494 117.797C16.0663 116.891 15.1218 115.936 14.2195 114.946C13.4822 114.139 13.5068 113.251 14.1949 112.387C14.841 111.576 15.4975 110.772 16.1646 109.975C16.7545 109.269 16.8668 108.497 16.5368 107.65C16.4209 107.352 16.3015 107.057 16.1716 106.769C15.824 106.011 15.2342 105.568 14.4056 105.477C13.3734 105.365 12.3411 105.263 11.3089 105.172C10.1643 105.073 9.45862 104.441 9.41297 103.293C9.3568 101.91 9.36733 100.52 9.41649 99.1363C9.4516 98.0971 10.1362 97.4335 11.1685 97.3247C12.2007 97.2158 13.2329 97.114 14.2652 97.0227C15.1956 96.9419 15.8451 96.482 16.2138 95.6253C16.3402 95.3339 16.4736 95.0425 16.5754 94.7406C16.8422 93.9611 16.758 93.2344 16.2243 92.5813C15.5677 91.7773 14.9042 90.9803 14.2546 90.1728C13.4892 89.2248 13.4611 88.3576 14.2862 87.4658C15.2166 86.4581 16.1927 85.4961 17.2039 84.5692C17.9658 83.867 18.8646 83.8846 19.6861 84.5306C20.5147 85.1801 21.3293 85.8507 22.1333 86.5284C22.8531 87.1358 23.6395 87.2411 24.4997 86.8935C24.7806 86.7811 25.065 86.6723 25.3388 86.5459C26.1113 86.1913 26.5571 85.5874 26.6449 84.7377C26.7538 83.7055 26.8521 82.6733 26.9469 81.641C27.0487 80.521 27.6842 79.8259 28.8077 79.7837C30.191 79.7311 31.5814 79.7381 32.9647 79.7837C34.011 79.8188 34.6746 80.493 34.7869 81.5252C34.8993 82.5399 35.0046 83.5545 35.0854 84.5727C35.1591 85.5242 35.6015 86.1948 36.4792 86.574C36.7425 86.6864 37.0094 86.7987 37.2762 86.9005C38.1224 87.2306 38.8948 87.1287 39.6005 86.5389C40.3729 85.8964 41.1523 85.2609 41.9353 84.6289C42.8903 83.8565 43.7505 83.8214 44.6423 84.643C45.6499 85.5699 46.6154 86.5459 47.5424 87.5571C48.2586 88.3435 48.234 89.2388 47.5669 90.078C46.9139 90.9031 46.2433 91.7176 45.5692 92.5251C44.9899 93.2168 44.888 93.9787 45.204 94.8073C45.3164 95.1057 45.4358 95.4006 45.5692 95.692C45.9343 96.482 46.5487 96.9279 47.4195 97.0157C48.4517 97.1175 49.4839 97.2158 50.5162 97.3176C51.6151 97.4265 52.2997 98.0655 52.3384 99.1644C52.3875 100.548 52.3875 101.938 52.3384 103.321C52.3033 104.382 51.6467 105.035 50.611 105.154C49.5963 105.274 48.5816 105.375 47.5634 105.453C46.5909 105.526 45.9132 105.979 45.5341 106.878C45.4147 107.155 45.2918 107.433 45.19 107.717C44.9056 108.514 44.9969 109.252 45.5481 109.919C46.2082 110.719 46.8682 111.52 47.5178 112.327C48.2586 113.251 48.2867 114.132 47.4897 115.003C46.5733 116 45.6113 116.958 44.6142 117.874C43.7715 118.647 42.8833 118.612 41.9774 117.885C41.1839 117.243 40.3905 116.596 39.6075 115.943C38.9018 115.354 38.1259 115.252 37.2832 115.585C36.9883 115.701 36.6899 115.824 36.402 115.954C35.6436 116.302 35.2082 116.895 35.117 117.724C35.0046 118.738 34.9063 119.756 34.815 120.771C34.7097 121.968 34.1023 122.611 32.9226 122.713C32.2344 122.779 31.5498 122.807 30.8546 122.846ZM30.8827 111.046C36.3107 111.039 40.6819 106.66 40.6749 101.236C40.6678 95.8079 36.2931 91.4332 30.8686 91.4402C25.4407 91.4473 21.0695 95.8255 21.0765 101.246C21.0835 106.678 25.4617 111.053 30.8827 111.046Z" fill="white"/>
<path d="M30.8546 107.124C27.6069 107.113 24.9948 104.487 24.9983 101.236C25.0018 97.9742 27.6561 95.3445 30.9213 95.3691C34.169 95.3936 36.7741 98.0339 36.7531 101.282C36.732 104.533 34.1023 107.134 30.8546 107.124Z" fill="white"/>
<path fill-rule="evenodd" clip-rule="evenodd" d="M246.626 132.108H146.682C144.744 132.108 143.171 130.535 143.171 128.597V92.8833C143.171 90.9452 144.744 89.3723 146.682 89.3723H246.623C248.561 89.3723 250.134 90.9452 250.134 92.8833V128.594C250.137 130.535 248.564 132.108 246.626 132.108Z" fill="#013B81"/>
<path d="M169.19 124.477C164.974 124.477 161.486 123.085 158.728 120.3C155.97 117.516 154.591 114.108 154.591 110.077C154.591 106.046 155.97 102.638 158.728 99.8535C161.486 97.0689 164.974 95.6766 169.19 95.6766C171.763 95.6766 174.123 96.2999 176.271 97.5463C178.419 98.7662 180.077 100.424 181.244 102.519L178.777 103.951C177.902 102.254 176.603 100.901 174.879 99.8933C173.155 98.8856 171.259 98.3817 169.19 98.3817C165.716 98.3817 162.879 99.5088 160.678 101.763C158.476 104.017 157.376 106.789 157.376 110.077C157.376 113.365 158.476 116.137 160.678 118.391C162.879 120.645 165.716 121.772 169.19 121.772C171.259 121.772 173.155 121.268 174.879 120.261C176.603 119.253 177.902 117.9 178.777 116.203L181.244 117.595C180.103 119.69 178.446 121.361 176.271 122.608C174.123 123.854 171.763 124.477 169.19 124.477ZM202.929 124L196.405 112.862H188.608V124H185.823V96.154H196.962C199.269 96.154 201.231 96.9761 202.849 98.6204C204.493 100.238 205.315 102.201 205.315 104.508C205.315 106.391 204.745 108.075 203.605 109.56C202.491 111.018 201.059 112 199.309 112.504L206.111 124H202.929ZM188.608 98.7795V110.236H196.962C198.5 110.236 199.812 109.679 200.9 108.565C201.987 107.425 202.531 106.072 202.531 104.508C202.531 102.917 201.987 101.564 200.9 100.45C199.812 99.3364 198.5 98.7795 196.962 98.7795H188.608ZM235.562 96.154V124H232.778V100.371L223.031 116.68H222.634L212.888 100.371V124H210.103V96.154H213.564L222.833 111.668L232.101 96.154H235.562Z" fill="white"/>
<path d="M154.728 82.4291C152.439 82.4291 150.473 81.8927 148.828 80.8199C147.206 79.7233 146.074 78.2214 145.43 76.3142L147.576 75.0626C148.029 76.6122 148.863 77.828 150.079 78.7101C151.295 79.5683 152.857 79.9974 154.764 79.9974C156.623 79.9974 158.066 79.5922 159.091 78.7816C160.14 77.9472 160.664 76.8506 160.664 75.4917C160.664 74.1805 160.187 73.1911 159.234 72.5236C158.28 71.8561 156.707 71.1647 154.513 70.4495C151.915 69.5913 150.198 68.8999 149.364 68.3754C147.457 67.2311 146.503 65.5742 146.503 63.4048C146.503 61.283 147.242 59.6142 148.72 58.3984C150.198 57.1587 152.022 56.5389 154.192 56.5389C156.146 56.5389 157.839 57.0514 159.27 58.0766C160.7 59.0778 161.761 60.3652 162.452 61.9386L160.342 63.1187C159.198 60.3533 157.148 58.9706 154.192 58.9706C152.642 58.9706 151.39 59.352 150.437 60.1149C149.483 60.8778 149.006 61.9386 149.006 63.2975C149.006 64.5372 149.436 65.467 150.294 66.0868C151.152 66.7066 152.57 67.3384 154.549 67.9821C155.455 68.292 156.099 68.5185 156.48 68.6615C156.886 68.7807 157.458 68.9953 158.197 69.3052C158.96 69.5913 159.52 69.8535 159.877 70.0919C160.235 70.3065 160.664 70.6164 161.165 71.0217C161.689 71.4031 162.059 71.7965 162.273 72.2018C162.512 72.5832 162.714 73.06 162.881 73.6322C163.072 74.1805 163.167 74.7765 163.167 75.4202C163.167 77.5419 162.393 79.2465 160.843 80.5338C159.293 81.7974 157.255 82.4291 154.728 82.4291ZM184.441 56.968L175.394 71.7369V82H172.89V71.6654L163.879 56.968H166.704L174.178 69.2337L181.616 56.968H184.441ZM194.085 82.4291C191.796 82.4291 189.83 81.8927 188.185 80.8199C186.563 79.7233 185.431 78.2214 184.787 76.3142L186.933 75.0626C187.386 76.6122 188.22 77.828 189.436 78.7101C190.652 79.5683 192.214 79.9974 194.121 79.9974C195.98 79.9974 197.423 79.5922 198.448 78.7816C199.497 77.9472 200.021 76.8506 200.021 75.4917C200.021 74.1805 199.544 73.1911 198.591 72.5236C197.637 71.8561 196.064 71.1647 193.87 70.4495C191.272 69.5913 189.555 68.8999 188.721 68.3754C186.814 67.2311 185.86 65.5742 185.86 63.4048C185.86 61.283 186.599 59.6142 188.077 58.3984C189.555 57.1587 191.379 56.5389 193.549 56.5389C195.503 56.5389 197.196 57.0514 198.626 58.0766C200.057 59.0778 201.118 60.3652 201.809 61.9386L199.699 63.1187C198.555 60.3533 196.505 58.9706 193.549 58.9706C191.999 58.9706 190.747 59.352 189.794 60.1149C188.84 60.8778 188.363 61.9386 188.363 63.2975C188.363 64.5372 188.792 65.467 189.651 66.0868C190.509 66.7066 191.927 67.3384 193.906 67.9821C194.812 68.292 195.456 68.5185 195.837 68.6615C196.242 68.7807 196.815 68.9953 197.554 69.3052C198.317 69.5913 198.877 69.8535 199.234 70.0919C199.592 70.3065 200.021 70.6164 200.522 71.0217C201.046 71.4031 201.416 71.7965 201.63 72.2018C201.869 72.5832 202.071 73.06 202.238 73.6322C202.429 74.1805 202.524 74.7765 202.524 75.4202C202.524 77.5419 201.75 79.2465 200.2 80.5338C198.65 81.7974 196.612 82.4291 194.085 82.4291ZM221.648 56.968V59.3282H213.96V82H211.456V59.3282H203.768V56.968H221.648ZM227.729 79.6398H239.887V82H225.225V56.968H239.708V59.3282H227.729V68.1966H238.814V70.5568H227.729V79.6398ZM267.074 56.968V82H264.571V60.7586L255.81 75.4202H255.452L246.691 60.7586V82H244.188V56.968H247.299L255.631 70.9144L263.963 56.968H267.074ZM280.307 82.4291C278.018 82.4291 276.052 81.8927 274.407 80.8199C272.786 79.7233 271.653 78.2214 271.009 76.3142L273.155 75.0626C273.608 76.6122 274.442 77.828 275.658 78.7101C276.874 79.5683 278.436 79.9974 280.343 79.9974C282.202 79.9974 283.645 79.5922 284.67 78.7816C285.719 77.9472 286.243 76.8506 286.243 75.4917C286.243 74.1805 285.766 73.1911 284.813 72.5236C283.859 71.8561 282.286 71.1647 280.092 70.4495C277.494 69.5913 275.777 68.8999 274.943 68.3754C273.036 67.2311 272.082 65.5742 272.082 63.4048C272.082 61.283 272.821 59.6142 274.299 58.3984C275.777 57.1587 277.601 56.5389 279.771 56.5389C281.726 56.5389 283.418 57.0514 284.849 58.0766C286.279 59.0778 287.34 60.3652 288.031 61.9386L285.921 63.1187C284.777 60.3533 282.727 58.9706 279.771 58.9706C278.221 58.9706 276.969 59.352 276.016 60.1149C275.062 60.8778 274.585 61.9386 274.585 63.2975C274.585 64.5372 275.015 65.467 275.873 66.0868C276.731 66.7066 278.15 67.3384 280.128 67.9821C281.034 68.292 281.678 68.5185 282.059 68.6615C282.465 68.7807 283.037 68.9953 283.776 69.3052C284.539 69.5913 285.099 69.8535 285.456 70.0919C285.814 70.3065 286.243 70.6164 286.744 71.0217C287.268 71.4031 287.638 71.7965 287.852 72.2018C288.091 72.5832 288.293 73.06 288.46 73.6322C288.651 74.1805 288.746 74.7765 288.746 75.4202C288.746 77.5419 287.972 79.2465 286.422 80.5338C284.872 81.7974 282.834 82.4291 280.307 82.4291Z" fill="white"/>
</svg>
